<svg id="Layer_1" data-name="Layer 1" xmlns="http://www.w3.org/2000/svg" viewBox="0 0 4988.98 907.09">
  <defs>
    <style>
      .cls-1 {
        fill: #fff;
      }

      .cls-2 {
        fill: #0db14b;
      }

      .cls-3 {
        fill: #8fbc8f;
      }

      .cls-4 {
        fill: #011541;
      }

      .cls-5 {
        fill: #f04c40;
      }
    </style>
  </defs>
  <path class="cls-2" d="m548.99,146.02c-11.42-26.94-27.1-50.38-47.02-70.3-19.92-19.91-43.21-35.73-69.86-47.45-26.67-11.71-55.22-17.58-85.68-17.58s-59.18,5.86-86.12,17.58c-26.95,11.73-50.39,27.55-70.31,47.45-19.92,19.92-35.59,43.36-47.02,70.3-11.42,26.95-17.13,55.36-17.13,85.24v13.62c0,4.39.57,8.65,1.76,12.74,2.92,26.95,10.68,52.15,23.29,75.58,2.55,4.74,5.34,9.28,8.18,13.78h128.46c-12.15-6.21-23.03-13.97-32.5-23.45-11.73-11.71-20.95-25.49-27.68-41.31-6.74-15.82-10.11-32.8-10.11-50.97s3.37-34.12,10.11-49.65c6.73-15.52,15.96-29.14,27.68-40.86,11.71-11.71,25.49-20.94,41.31-27.68,15.82-6.73,32.52-10.11,50.09-10.11s34.27,3.38,50.09,10.11c15.82,6.74,29.44,15.97,40.87,27.68,11.42,11.73,20.5,25.35,27.24,40.86,6.73,15.53,10.11,32.08,10.11,49.65v426.21l91.39-91.39V231.27c0-29.88-5.71-58.29-17.14-85.24Z"/>
  <path class="cls-5" d="m548.99,146.02c-11.42-26.94-27.1-50.38-47.02-70.3-19.92-19.91-43.21-35.73-69.86-47.45-26.67-11.71-55.22-17.58-85.68-17.58s-59.18,5.86-86.12,17.58c-26.95,11.73-50.39,27.55-70.31,47.45-19.92,19.92-35.59,43.36-47.02,70.3-11.42,26.95-17.13,55.36-17.13,85.24v13.62c0,4.39.57,8.65,1.76,12.74,2.92,26.95,10.68,52.15,23.29,75.58,2.55,4.74,5.34,9.28,8.18,13.78h128.46c-12.15-6.21-23.03-13.97-32.5-23.45-11.73-11.71-20.95-25.49-27.68-41.31-6.74-15.82-10.11-32.8-10.11-50.97s3.37-34.12,10.11-49.65c6.73-15.52,15.96-29.14,27.68-40.86,11.71-11.71,25.49-20.94,41.31-27.68,15.82-6.73,32.52-10.11,50.09-10.11s34.27,3.38,50.09,10.11c15.82,6.74,29.44,15.97,40.87,27.68,11.42,11.73,20.5,25.35,27.24,40.86,6.73,15.53,10.11,32.08,10.11,49.65v426.21l91.39-91.39V231.27c0-29.88-5.71-58.29-17.14-85.24Z"/>
  <path class="cls-3" d="m395.35,146.02c11.42-26.94,27.1-50.38,47.02-70.3,19.92-19.91,43.21-35.73,69.86-47.45,26.67-11.71,55.22-17.58,85.68-17.58,30.47,0,59.18,5.86,86.12,17.58,26.95,11.73,50.39,27.55,70.31,47.45,19.92,19.92,35.59,43.36,47.02,70.3,11.42,26.95,17.13,55.36,17.13,85.24v13.62c0,4.39-.57,8.65-1.76,12.74-2.92,26.95-10.68,52.15-23.29,75.58-2.55,4.74-5.34,9.28-8.18,13.78h-128.46c12.15-6.21,23.03-13.97,32.5-23.45,11.73-11.71,20.95-25.49,27.68-41.31,6.74-15.82,10.11-32.8,10.11-50.97,0-17.58-3.37-34.12-10.11-49.65-6.73-15.52-15.96-29.14-27.68-40.86-11.71-11.71-25.49-20.94-41.31-27.68-15.82-6.73-32.52-10.11-50.09-10.11-17.57,0-34.27,3.38-50.09,10.11-15.82,6.74-29.44,15.97-40.87,27.68-11.42,11.73-20.5,25.35-27.24,40.86-6.73,15.53-10.11,32.08-10.11,49.65v426.21s-91.39-91.39-91.39-91.39V231.27c0-29.88,5.71-58.29,17.14-85.24Z"/>
  <path class="cls-4" d="m379.9,896.4c-138.35,0-250.51-112.16-250.51-250.51h0c0-138.35,112.16-250.51,250.51-250.51h191.62c138.35,0,250.51,112.16,250.51,250.51h0c0,138.35-112.16,250.51-250.51,250.51"/>
  <polygon class="cls-1" points="501.54 667.18 528.48 712.56 475.72 713.19 422.95 713.83 448.78 667.82 474.61 621.81 501.54 667.18"/>
  <circle class="cls-1" cx="473.57" cy="617.1" r="39.15"/>
  <g>
    <path class="cls-1" d="m1049.25,484.51c0,56.2,42.71,89.92,112.41,89.92,74.19,0,116.9-30.35,116.9-80.93,0-37.09-17.98-59.58-75.31-74.19l-96.67-22.48c-97.79-23.6-143.88-71.94-143.88-152.87,0-101.17,85.43-165.24,206.83-165.24s198.96,67.44,201.21,171.98h-101.16c-2.25-55.08-39.34-89.92-103.41-89.92s-103.41,29.23-103.41,79.81c0,37.09,26.98,61.82,80.93,75.31l96.67,23.6c93.3,22.48,139.38,65.2,139.38,147.25,0,104.54-89.92,170.86-220.31,170.86s-211.32-68.57-211.32-173.1h101.16Z"/>
    <path class="cls-1" d="m1432.55,803.74h70.82c50.58,0,91.05-7.87,116.9-77.56l19.11-52.83-221.44-578.89h111.28l159.62,442.88,162.99-442.88h109.03l-259.66,673.31c-37.09,94.42-92.17,133.76-176.48,133.76-34.85,0-64.07-4.5-92.17-11.24v-86.55Z"/>
    <path class="cls-1" d="m2244.1,78.73c86.55,0,161.86,39.34,197.83,114.65l8.99-98.92h94.42v795.83h-104.54v-336.09c-37.09,67.44-110.16,104.54-197.83,104.54-161.86,0-255.16-125.89-255.16-293.38s98.92-286.63,256.28-286.63Zm21.36,484.47c107.91,0,174.23-80.93,174.23-193.34s-66.32-194.46-174.23-194.46-170.86,80.93-170.86,194.46,62.95,193.34,170.86,193.34Z"/>
    <path class="cls-1" d="m2698.21,94.46h95.54l7.87,98.92c37.09-75.31,111.28-114.65,198.96-114.65,157.37,0,255.16,118.03,255.16,286.63s-92.17,293.38-255.16,293.38c-87.68,0-160.74-37.09-196.71-104.54v336.09h-105.66V94.46Zm279.89,468.73c107.91,0,171.98-80.93,171.98-193.34s-64.07-194.46-171.98-194.46-173.1,79.81-173.1,194.46,65.2,193.34,173.1,193.34Z"/>
    <path class="cls-1" d="m3345.65,491.25c0-101.17,75.31-164.11,204.58-174.23l173.1-13.49v-15.74c0-92.17-55.08-124.77-129.27-124.77-88.8,0-139.38,39.34-139.38,105.66h-92.17c0-114.65,94.42-189.97,236.05-189.97s228.18,71.94,228.18,220.31v345.08h-89.92l-11.24-88.8c-28.1,62.95-103.41,102.29-192.21,102.29-118.03,0-187.72-66.32-187.72-166.36Zm378.81-84.3v-29.23l-140.51,11.24c-93.3,8.99-131.51,44.96-131.51,98.92,0,58.45,42.71,87.68,111.28,87.68,100.04,0,160.74-65.2,160.74-168.61Z"/>
    <path class="cls-1" d="m4029.07,484.51c0,56.2,42.71,89.92,112.41,89.92,74.19,0,116.9-30.35,116.9-80.93,0-37.09-17.98-59.58-75.31-74.19l-96.67-22.48c-97.79-23.6-143.88-71.94-143.88-152.87,0-101.17,85.43-165.24,206.83-165.24s198.96,67.44,201.21,171.98h-101.17c-2.25-55.08-39.34-89.92-103.41-89.92s-103.41,29.23-103.41,79.81c0,37.09,26.98,61.82,80.93,75.31l96.67,23.6c93.3,22.48,139.38,65.2,139.38,147.25,0,104.54-89.92,170.86-220.31,170.86s-211.32-68.57-211.32-173.1h101.17Z"/>
    <path class="cls-1" d="m4532.64,484.51c0,56.2,42.71,89.92,112.41,89.92,74.19,0,116.9-30.35,116.9-80.93,0-37.09-17.98-59.58-75.31-74.19l-96.67-22.48c-97.79-23.6-143.88-71.94-143.88-152.87,0-101.17,85.43-165.24,206.83-165.24s198.96,67.44,201.21,171.98h-101.17c-2.25-55.08-39.34-89.92-103.41-89.92s-103.41,29.23-103.41,79.81c0,37.09,26.98,61.82,80.93,75.31l96.67,23.6c93.3,22.48,139.38,65.2,139.38,147.25,0,104.54-89.92,170.86-220.31,170.86s-211.32-68.57-211.32-173.1h101.17Z"/>
  </g>
</svg>